# xmcd CD database file generated by OrangeCD 5.2
#
# Track frame offsets:
#	150
#	17763
#	42193
#	59214
#	86735
#	109072
#	136636
#	171701
#	189678
#	206821
#	228057
#	244048
#	265672
#	288697
#	314339
#	331263
#
# Disc length: 4645 seconds
#
# Revision: 2
# Processed by: cddbd v1.5.1PL0 Copyright (c) Steve Scherf et al.
# Submitted via: OrangeCD 5.2
#
DISCID=ed122310
DTITLE=Curtis Mayfield - He's A Fly Guy
DYEAR=2001
DGENRE=Soul
TTITLE0=Superfly
TTITLE1=Freddie's Dead
TTITLE2=People Get Ready (Live)
TTITLE3=Kung Fu
TTITLE4=He's A Fly Guy
TTITLE5=Billy Jack
TTITLE6=If There's A Hell Below
TTITLE7=Soul Music
TTITLE8=Sweet Exorcist
TTITLE9=We Got To Have Peace
TTITLE10=Only You Babe
TTITLE11=Love Me, Love Me Now
TTITLE12=Keep On Keeping On
TTITLE13=What Is My Woman For
TTITLE14=This Year
TTITLE15=Cutis Mayfield - Linda Clifford - Love's Sweet Sensation
EXTD=\nYEAR: 2001  ID3G:  42
EXTT0=
EXTT1=
EXTT2=
EXTT3=
EXTT4=
EXTT5=
EXTT6=
EXTT7=
EXTT8=
EXTT9=
EXTT10=
EXTT11=
EXTT12=
EXTT13=
EXTT14=
EXTT15=
PLAYORDER=
